<svg version="1.1" id="Layer_1" xmlns="http://www.w3.org/2000/svg" xmlns:xlink="http://www.w3.org/1999/xlink" x="0px" y="0px"
	 width="100%" viewBox="0 0 2000 1500" enable-background="new 0 0 2000 1500" xml:space="preserve">
<path fill="#000000" opacity="1.000000" stroke="none" 
	d="
M1014.000000,1501.000000 
	C676.000122,1501.000000 338.500214,1501.000000 1.000226,1501.000000 
	C1.000151,1001.000244 1.000151,501.000488 1.000075,1.000562 
	C667.666199,1.000375 1334.332397,1.000375 2000.999023,1.000187 
	C2000.999268,500.999390 2000.999268,1000.998779 2000.999634,1500.999023 
	C1672.166626,1501.000000 1343.333374,1501.000000 1014.000000,1501.000000 
M897.499939,1132.876343 
	C906.293518,1132.876343 915.087036,1132.876343 924.075928,1132.876343 
	C924.173889,1131.116089 924.309204,1129.819702 924.309265,1128.523315 
	C924.318481,970.210388 924.330322,811.897522 924.195862,653.584717 
	C924.193909,651.275513 922.939026,648.396851 921.300476,646.744385 
	C892.318909,617.517517 863.188232,588.438477 834.079346,559.337952 
	C833.220398,558.479187 832.247986,557.733887 831.172974,556.800781 
	C828.371277,656.970581 834.056580,756.476746 837.057556,856.169922 
	C789.014893,720.161804 740.972229,584.153748 692.953247,448.212738 
	C665.640869,448.212738 638.547546,448.212738 611.395630,448.212738 
	C611.395630,676.491272 611.395630,904.520325 611.395630,1132.574341 
	C643.440247,1132.574341 675.177368,1132.574341 707.053284,1132.574341 
	C707.328430,991.933716 708.697754,851.584412 701.013123,711.336792 
	C701.571472,711.273010 702.129822,711.209167 702.688171,711.145325 
	C751.956299,851.724121 801.224426,992.302856 850.490723,1132.876343 
	C866.186279,1132.876343 881.343079,1132.876343 897.499939,1132.876343 
M1207.513794,722.964783 
	C1202.929565,748.166626 1198.421509,773.382812 1193.660889,798.551270 
	C1193.092896,801.554688 1193.559448,803.370178 1195.705688,805.498108 
	C1215.111572,824.739075 1234.393921,844.104553 1253.727417,863.418518 
	C1254.602905,864.293091 1255.620850,865.025085 1256.788696,866.004883 
	C1270.690918,792.716553 1284.504517,719.895630 1298.318237,647.074768 
	C1298.865723,650.479919 1298.910889,653.808044 1298.859131,657.134583 
	C1297.601807,737.939941 1296.350464,818.745361 1295.014648,899.549438 
	C1294.956055,903.095764 1295.810547,905.681091 1298.447266,908.297058 
	C1327.192261,936.815674 1355.794434,965.478149 1384.389404,994.147644 
	C1385.366577,995.127319 1385.858765,996.590698 1386.576904,997.828613 
	C1386.963013,997.416809 1387.348999,997.005066 1387.735107,996.593323 
	C1387.735107,813.764404 1387.735107,630.935547 1387.735107,448.154724 
	C1344.282593,448.154724 1301.170166,448.154724 1257.777466,448.154724 
	C1256.840210,453.172638 1255.910645,458.057281 1255.016724,462.948456 
	C1245.507812,514.977966 1235.996826,567.007141 1226.502441,619.039307 
	C1220.232422,653.400452 1213.988647,687.766418 1207.513794,722.964783 
M989.125549,714.374573 
	C972.872803,698.129211 956.620056,681.883911 939.848511,665.119995 
	C939.848511,821.723083 939.848511,977.206604 939.848511,1132.533325 
	C970.668701,1132.533325 1001.074341,1132.533325 1031.626709,1132.533325 
	C1031.692261,1131.383301 1031.782959,1130.570312 1031.778687,1129.757690 
	C1031.126221,1006.133545 1030.483154,882.509277 1029.681396,758.886047 
	C1029.666382,756.578369 1028.304321,753.756042 1026.656128,752.065857 
	C1014.443054,739.541565 1001.997864,727.243652 989.125549,714.374573 
M1098.123047,823.376953 
	C1083.997925,809.252136 1069.872681,795.127319 1054.818115,780.073120 
	C1078.053223,897.619141 1100.994141,1013.676270 1123.901001,1129.561523 
	C1151.939087,1129.561523 1179.236206,1129.561523 1206.685181,1129.561523 
	C1207.133423,1127.482788 1207.592285,1125.560791 1207.959595,1123.621338 
	C1217.768311,1071.825317 1227.514404,1020.017334 1237.482422,968.252014 
	C1238.185425,964.600891 1237.333252,962.464966 1234.856079,960.010925 
	C1216.154175,941.483521 1197.580200,922.827271 1178.957275,904.220093 
	C1177.825806,903.089600 1176.618286,902.035278 1175.068604,900.594299 
	C1172.201050,916.211792 1169.439819,931.250061 1166.445312,947.559387 
	C1165.768188,944.680664 1165.306030,942.965759 1164.964844,941.227173 
	C1161.090698,921.483154 1157.320068,901.718018 1153.270386,882.010132 
	C1152.744019,879.448792 1151.283081,876.707520 1149.447754,874.845032 
	C1132.607788,857.755554 1115.589355,840.841858 1098.123047,823.376953 
M1123.224731,732.868713 
	C1123.408203,731.623779 1123.945068,730.311401 1123.722168,729.143982 
	C1120.388062,711.668152 1116.941650,694.213684 1113.544922,676.749695 
	C1101.354858,614.076294 1089.175903,551.400635 1076.987305,488.726929 
	C1074.357300,475.203278 1071.704346,461.684082 1069.059570,448.150482 
	C1025.789673,448.150482 982.853210,448.150482 939.697327,448.150482 
	C939.602417,449.284943 939.451233,450.251495 939.450867,451.218109 
	C939.438599,482.705658 939.383057,514.193542 939.567993,545.679993 
	C939.580627,547.831116 940.906311,550.476135 942.470581,552.044312 
	C1002.474731,612.196960 1062.578247,672.250610 1123.224731,732.868713 
M1303.623413,1028.875244 
	C1301.097778,1026.172974 1298.572144,1023.470825 1295.432617,1020.111938 
	C1295.432617,1058.619019 1295.432617,1095.649170 1295.432617,1132.677002 
	C1326.395508,1132.677002 1356.991577,1132.677002 1388.077148,1132.677002 
	C1388.077148,1127.874756 1387.842529,1123.242554 1388.150024,1118.646729 
	C1388.404663,1114.839478 1387.097900,1112.215820 1384.397217,1109.534912 
	C1357.560181,1082.894897 1330.861572,1056.115601 1303.623413,1028.875244 
M911.493530,447.964111 
	C887.442078,447.964111 863.390686,447.964111 839.583069,447.964111 
	C867.824585,476.205231 895.948425,504.328613 924.034119,532.413879 
	C924.034119,504.630951 924.034119,476.488190 924.034119,447.964111 
	C920.083130,447.964111 916.286438,447.964111 911.493530,447.964111 
z"/>
<path fill="#FEFEFE" opacity="1.000000" stroke="none" 
	d="
M896.999878,1132.876343 
	C881.343079,1132.876343 866.186279,1132.876343 850.490723,1132.876343 
	C801.224426,992.302856 751.956299,851.724121 702.688171,711.145325 
	C702.129822,711.209167 701.571472,711.273010 701.013123,711.336792 
	C708.697754,851.584412 707.328430,991.933716 707.053284,1132.574341 
	C675.177368,1132.574341 643.440247,1132.574341 611.395630,1132.574341 
	C611.395630,904.520325 611.395630,676.491272 611.395630,448.212738 
	C638.547546,448.212738 665.640869,448.212738 692.953247,448.212738 
	C740.972229,584.153748 789.014893,720.161804 837.057556,856.169922 
	C834.056580,756.476746 828.371277,656.970581 831.172974,556.800781 
	C832.247986,557.733887 833.220398,558.479187 834.079346,559.337952 
	C863.188232,588.438477 892.318909,617.517517 921.300476,646.744385 
	C922.939026,648.396851 924.193909,651.275513 924.195862,653.584717 
	C924.330322,811.897522 924.318481,970.210388 924.309265,1128.523315 
	C924.309204,1129.819702 924.173889,1131.116089 924.075928,1132.876343 
	C915.087036,1132.876343 906.293518,1132.876343 896.999878,1132.876343 
z"/>
<path fill="#FFFFFF" opacity="1.000000" stroke="none" 
	d="
M1207.623413,722.547485 
	C1213.988647,687.766418 1220.232422,653.400452 1226.502441,619.039307 
	C1235.996826,567.007141 1245.507812,514.977966 1255.016724,462.948456 
	C1255.910645,458.057281 1256.840210,453.172638 1257.777466,448.154724 
	C1301.170166,448.154724 1344.282593,448.154724 1387.735107,448.154724 
	C1387.735107,630.935547 1387.735107,813.764404 1387.735107,996.593323 
	C1387.348999,997.005066 1386.963013,997.416809 1386.576904,997.828613 
	C1385.858765,996.590698 1385.366577,995.127319 1384.389404,994.147644 
	C1355.794434,965.478149 1327.192261,936.815674 1298.447266,908.297058 
	C1295.810547,905.681091 1294.956055,903.095764 1295.014648,899.549438 
	C1296.350464,818.745361 1297.601807,737.939941 1298.859131,657.134583 
	C1298.910889,653.808044 1298.865723,650.479919 1298.318237,647.074768 
	C1284.504517,719.895630 1270.690918,792.716553 1256.788696,866.004883 
	C1255.620850,865.025085 1254.602905,864.293091 1253.727417,863.418518 
	C1234.393921,844.104553 1215.111572,824.739075 1195.705688,805.498108 
	C1193.559448,803.370178 1193.092896,801.554688 1193.660889,798.551270 
	C1198.421509,773.382812 1202.929565,748.166626 1207.623413,722.547485 
z"/>
<path fill="#FDFDFD" opacity="1.000000" stroke="none" 
	d="
M989.375549,714.624573 
	C1001.997864,727.243652 1014.443054,739.541565 1026.656128,752.065857 
	C1028.304321,753.756042 1029.666382,756.578369 1029.681396,758.886047 
	C1030.483154,882.509277 1031.126221,1006.133545 1031.778687,1129.757690 
	C1031.782959,1130.570312 1031.692261,1131.383301 1031.626709,1132.533325 
	C1001.074341,1132.533325 970.668701,1132.533325 939.848511,1132.533325 
	C939.848511,977.206604 939.848511,821.723083 939.848511,665.119995 
	C956.620056,681.883911 972.872803,698.129211 989.375549,714.624573 
z"/>
<path fill="#FEFEFE" opacity="1.000000" stroke="none" 
	d="
M1098.373047,823.626953 
	C1115.589355,840.841858 1132.607788,857.755554 1149.447754,874.845032 
	C1151.283081,876.707520 1152.744019,879.448792 1153.270386,882.010132 
	C1157.320068,901.718018 1161.090698,921.483154 1164.964844,941.227173 
	C1165.306030,942.965759 1165.768188,944.680664 1166.445312,947.559387 
	C1169.439819,931.250061 1172.201050,916.211792 1175.068604,900.594299 
	C1176.618286,902.035278 1177.825806,903.089600 1178.957275,904.220093 
	C1197.580200,922.827271 1216.154175,941.483521 1234.856079,960.010925 
	C1237.333252,962.464966 1238.185425,964.600891 1237.482422,968.252014 
	C1227.514404,1020.017334 1217.768311,1071.825317 1207.959595,1123.621338 
	C1207.592285,1125.560791 1207.133423,1127.482788 1206.685181,1129.561523 
	C1179.236206,1129.561523 1151.939087,1129.561523 1123.901001,1129.561523 
	C1100.994141,1013.676270 1078.053223,897.619141 1054.818115,780.073120 
	C1069.872681,795.127319 1083.997925,809.252136 1098.373047,823.626953 
z"/>
<path fill="#FEFEFE" opacity="1.000000" stroke="none" 
	d="
M1122.946655,732.593018 
	C1062.578247,672.250610 1002.474731,612.196960 942.470581,552.044312 
	C940.906311,550.476135 939.580627,547.831116 939.567993,545.679993 
	C939.383057,514.193542 939.438599,482.705658 939.450867,451.218109 
	C939.451233,450.251495 939.602417,449.284943 939.697327,448.150482 
	C982.853210,448.150482 1025.789673,448.150482 1069.059570,448.150482 
	C1071.704346,461.684082 1074.357300,475.203278 1076.987305,488.726929 
	C1089.175903,551.400635 1101.354858,614.076294 1113.544922,676.749695 
	C1116.941650,694.213684 1120.388062,711.668152 1123.722168,729.143982 
	C1123.945068,730.311401 1123.408203,731.623779 1122.946655,732.593018 
z"/>
<path fill="#FEFEFE" opacity="1.000000" stroke="none" 
	d="
M1303.873535,1029.125488 
	C1330.861572,1056.115601 1357.560181,1082.894897 1384.397217,1109.534912 
	C1387.097900,1112.215820 1388.404663,1114.839478 1388.150024,1118.646729 
	C1387.842529,1123.242554 1388.077148,1127.874756 1388.077148,1132.677002 
	C1356.991577,1132.677002 1326.395508,1132.677002 1295.432617,1132.677002 
	C1295.432617,1095.649170 1295.432617,1058.619019 1295.432617,1020.111938 
	C1298.572144,1023.470825 1301.097778,1026.172974 1303.873535,1029.125488 
z"/>
<path fill="#FFFFFF" opacity="1.000000" stroke="none" 
	d="
M911.991638,447.964111 
	C916.286438,447.964111 920.083130,447.964111 924.034119,447.964111 
	C924.034119,476.488190 924.034119,504.630951 924.034119,532.413879 
	C895.948425,504.328613 867.824585,476.205231 839.583069,447.964111 
	C863.390686,447.964111 887.442078,447.964111 911.991638,447.964111 
z"/>
</svg>